<?xml version="1.0" encoding="utf-8"?>
<!-- Generator: Adobe Illustrator 23.0.1, SVG Export Plug-In . SVG Version: 6.00 Build 0)  -->
<svg version="1.2" baseProfile="tiny" id="Слой_1"
	 xmlns="http://www.w3.org/2000/svg" xmlns:xlink="http://www.w3.org/1999/xlink" x="0px" y="0px" viewBox="0 0 640 480"
	 xml:space="preserve">
<line fill="none" stroke="#000000" stroke-miterlimit="10" x1="352.5" y1="293.5" x2="343.5" y2="293.5"/>
<polygon fill="#FFFFFF" stroke="#000000" stroke-width="4" stroke-miterlimit="10" points="406.5,185.5 406.5,80.5 234.5,80.5 
	234.5,185.5 252.5,185.5 252.5,99.5 387.5,99.5 387.5,185.5 "/>
<rect x="197" y="186" fill="#FFFFFF" stroke="#000000" stroke-width="4" stroke-miterlimit="10" width="244" height="224"/>
<line fill="#FFFFFF" stroke="#000000" stroke-miterlimit="10" x1="335.5" y1="320.5" x2="335.5" y2="320.5"/>
<line fill="none" stroke="#000000" stroke-miterlimit="10" x1="197.5" y1="234.5" x2="276.5" y2="234.5"/>
<line fill="none" stroke="#000000" stroke-miterlimit="10" x1="197.5" y1="360.5" x2="223.5" y2="360.5"/>
<line fill="none" stroke="#000000" stroke-miterlimit="10" x1="440.5" y1="257.5" x2="387.5" y2="257.5"/>
<line fill="none" stroke="#000000" stroke-miterlimit="10" x1="404.5" y1="409.5" x2="404.5" y2="365.5"/>
<line fill="none" stroke="#000000" stroke-miterlimit="10" x1="348.5" y1="186.5" x2="348.5" y2="225.5"/>
<line fill="none" stroke="#000000" stroke-miterlimit="10" x1="403.5" y1="362.5" x2="386.5" y2="347.5"/>
<line fill="none" stroke="#000000" stroke-miterlimit="10" x1="225.5" y1="361.5" x2="234.5" y2="370.5"/>
<line fill="none" stroke="#000000" stroke-miterlimit="10" x1="279.5" y1="235.5" x2="288.5" y2="244.5"/>
<line fill="none" stroke="#000000" stroke-miterlimit="10" x1="347.5" y1="227.5" x2="332.5" y2="242.5"/>
<circle fill="none" stroke="#000000" stroke-miterlimit="10" cx="348.5" cy="226.5" r="1.5"/>
<circle fill="none" stroke="#000000" stroke-miterlimit="10" cx="404.5" cy="363.5" r="1.5"/>
<circle fill="none" stroke="#000000" stroke-miterlimit="10" cx="278.5" cy="234.5" r="1.5"/>
<circle fill="none" stroke="#000000" stroke-miterlimit="10" cx="224.5" cy="360.5" r="1.5"/>
<line fill="none" stroke="#000000" stroke-miterlimit="10" x1="233.5" y1="371.5" x2="197.5" y2="371.5"/>
<circle fill="none" stroke="#000000" stroke-miterlimit="10" cx="235.5" cy="371.5" r="1.5"/>
<line fill="none" stroke="#000000" stroke-miterlimit="10" x1="222.5" y1="371.5" x2="232.5" y2="381.5"/>
<line fill="none" stroke="#000000" stroke-miterlimit="10" x1="234.5" y1="382.5" x2="244.5" y2="382.5"/>
<line fill="none" stroke="#000000" stroke-miterlimit="10" x1="319.5" y1="275.5" x2="319.5" y2="186.5"/>
<line fill="none" stroke="#000000" stroke-miterlimit="10" x1="330.5" y1="243.5" x2="319.5" y2="243.5"/>
<line fill="none" stroke="#000000" stroke-miterlimit="10" x1="331.5" y1="244.5" x2="331.5" y2="268.5"/>
<line fill="none" stroke="#000000" stroke-miterlimit="10" x1="311.5" y1="186.5" x2="311.5" y2="219.5"/>
<line fill="none" stroke="#000000" stroke-miterlimit="10" x1="319.5" y1="225.5" x2="312.5" y2="221.5"/>
<line fill="none" stroke="#000000" stroke-miterlimit="10" x1="332.5" y1="271.5" x2="353.5" y2="291.5"/>
<line fill="none" stroke="#000000" stroke-miterlimit="10" x1="355.5" y1="293.5" x2="440.5" y2="293.5"/>
<line fill="none" stroke="#000000" stroke-miterlimit="10" x1="386.5" y1="255.5" x2="397.5" y2="245.5"/>
<line fill="none" stroke="#000000" stroke-miterlimit="10" x1="440.5" y1="244.5" x2="400.5" y2="244.5"/>
<circle fill="none" stroke="#000000" stroke-miterlimit="10" cx="331.5" cy="243.5" r="1.5"/>
<circle fill="none" stroke="#000000" stroke-miterlimit="10" cx="311.5" cy="220.5" r="1.5"/>
<line fill="none" stroke="#000000" stroke-miterlimit="10" x1="261.5" y1="381.5" x2="270.5" y2="371.5"/>
<line fill="none" stroke="#000000" stroke-miterlimit="10" x1="237" y1="371.5" x2="270.5" y2="371.5"/>
<line fill="none" stroke="#000000" stroke-miterlimit="10" x1="270.5" y1="371.5" x2="284.5" y2="371.5"/>
<line fill="none" stroke="#000000" stroke-miterlimit="10" x1="286.5" y1="370.5" x2="292.5" y2="364.5"/>
<line fill="none" stroke="#000000" stroke-miterlimit="10" x1="298.5" y1="363.5" x2="295.5" y2="363.5"/>
<circle fill="none" stroke="#000000" stroke-miterlimit="10" cx="285.5" cy="371.5" r="1.5"/>
<circle fill="none" stroke="#000000" stroke-miterlimit="10" cx="293.5" cy="363.5" r="1.5"/>
<line fill="none" stroke="#000000" stroke-miterlimit="10" x1="246.5" y1="383.5" x2="246.5" y2="409.5"/>
<circle fill="none" stroke="#000000" stroke-miterlimit="10" cx="246.5" cy="382.5" r="1.5"/>
<line fill="none" stroke="#000000" stroke-miterlimit="10" x1="261.5" y1="383.5" x2="271.5" y2="394.5"/>
<line fill="none" stroke="#000000" stroke-miterlimit="10" x1="272.5" y1="396.5" x2="272.5" y2="409.5"/>
<line fill="none" stroke="#000000" stroke-miterlimit="10" x1="221.5" y1="394.5" x2="197.5" y2="394.5"/>
<circle fill="none" stroke="#000000" stroke-miterlimit="10" cx="233.5" cy="382.5" r="1.5"/>
<circle fill="none" stroke="#000000" stroke-miterlimit="10" cx="260.5" cy="382.5" r="1.5"/>
<circle fill="none" stroke="#000000" stroke-miterlimit="10" cx="272.5" cy="395.5" r="1.5"/>
<line fill="none" stroke="#000000" stroke-miterlimit="10" x1="248.5" y1="382.5" x2="259.5" y2="382.5"/>
<circle fill="none" stroke="#000000" stroke-miterlimit="10" cx="332" cy="270" r="1.5"/>
<circle fill="none" stroke="#000000" stroke-miterlimit="10" cx="354" cy="293" r="1.5"/>
<circle fill="none" stroke="#000000" stroke-miterlimit="10" cx="386" cy="257" r="1.5"/>
<circle fill="none" stroke="#000000" stroke-miterlimit="10" cx="399" cy="245" r="1.5"/>
<polyline fill="none" stroke="#000000" stroke-miterlimit="10" points="232.5,383.5 211.5,404.5 211.5,408.5 "/>
<line fill="none" stroke="#000000" stroke-miterlimit="10" x1="386.5" y1="293.5" x2="395.5" y2="285.5"/>
<line fill="none" stroke="#000000" stroke-miterlimit="10" x1="398.5" y1="284.5" x2="439.5" y2="284.5"/>
<circle fill="none" stroke="#000000" stroke-miterlimit="10" cx="397" cy="285" r="1.5"/>
<polyline fill="none" stroke="#000000" stroke-miterlimit="10" points="439.5,275.5 429.5,275.5 420.5,284.5 "/>
<line fill="none" stroke="#000000" stroke-miterlimit="10" x1="409.5" y1="293.5" x2="417.5" y2="301.5"/>
<line fill="none" stroke="#000000" stroke-miterlimit="10" x1="380.5" y1="293.5" x2="369.5" y2="304.5"/>
<line fill="none" stroke="#000000" stroke-miterlimit="10" x1="398.5" y1="243.5" x2="383.5" y2="228.5"/>
<line fill="none" stroke="#000000" stroke-miterlimit="10" x1="381.5" y1="226.5" x2="350.5" y2="226.5"/>
<circle fill="none" stroke="#000000" stroke-miterlimit="10" cx="383" cy="227" r="1.5"/>
<path fill="none" stroke="#000000" stroke-miterlimit="10" d="M312.5,371.5h16v-47c0,0,0.2-0.06,0.29-0.09
	c0.09-0.03,0.18-0.07,0.27-0.1s0.18-0.07,0.27-0.11c0.09-0.04,0.18-0.07,0.26-0.11c0.09-0.04,0.2-0.08,0.31-0.13s0.23-0.1,0.34-0.15
	c0.11-0.05,0.21-0.09,0.28-0.12c0.07-0.03,0.11-0.05,0.11-0.05l0.25-0.13l0.25-0.13l0.25-0.13l0.25-0.13c0,0,0.04-0.02,0.11-0.06
	s0.16-0.09,0.26-0.14c0.1-0.06,0.22-0.12,0.33-0.18c0.11-0.06,0.21-0.12,0.29-0.17c0.08-0.05,0.16-0.1,0.24-0.14
	c0.08-0.05,0.16-0.1,0.24-0.15c0.08-0.05,0.16-0.1,0.24-0.15c0.08-0.05,0.16-0.1,0.24-0.15c0.08-0.05,0.16-0.1,0.24-0.16
	c0.08-0.05,0.16-0.1,0.23-0.16c0.08-0.05,0.16-0.11,0.23-0.16c0.08-0.05,0.15-0.11,0.23-0.16c0.08-0.05,0.15-0.11,0.23-0.17
	s0.15-0.11,0.23-0.17c0.08-0.06,0.15-0.11,0.22-0.17c0.07-0.06,0.15-0.11,0.22-0.17c0.02-0.02,0.05-0.04,0.07-0.06
	c0.02-0.02,0.05-0.04,0.07-0.06s0.05-0.04,0.07-0.06c0.02-0.02,0.05-0.04,0.07-0.06c0.02-0.02,0.05-0.04,0.07-0.06
	c0.02-0.02,0.05-0.04,0.07-0.06c0.02-0.02,0.05-0.04,0.07-0.06c0.02-0.02,0.05-0.04,0.07-0.06s0.05-0.04,0.07-0.06
	c0.02-0.02,0.05-0.04,0.07-0.06c0.02-0.02,0.05-0.04,0.07-0.06c0.02-0.02,0.05-0.04,0.07-0.06c0.02-0.02,0.05-0.04,0.07-0.06
	c0.02-0.02,0.05-0.04,0.07-0.06s0.05-0.04,0.07-0.06c0.02-0.02,0.05-0.04,0.07-0.06s0.05-0.04,0.07-0.06
	c0.02-0.02,0.05-0.04,0.07-0.06c0.02-0.02,0.05-0.04,0.07-0.06s0.05-0.04,0.07-0.06c0.02-0.02,0.05-0.04,0.07-0.06
	c0.02-0.02,0.05-0.04,0.07-0.06c0.02-0.02,0.05-0.04,0.07-0.06c0.02-0.02,0.05-0.04,0.07-0.06c0.02-0.02,0.05-0.04,0.07-0.06
	c0.02-0.02,0.05-0.04,0.07-0.06c0.02-0.02,0.05-0.04,0.07-0.06c0.02-0.02,0.04-0.04,0.07-0.07c0.02-0.02,0.04-0.04,0.07-0.07
	s0.04-0.04,0.07-0.07c0.02-0.02,0.04-0.04,0.07-0.07c0.02-0.02,0.04-0.04,0.07-0.07c0.14-0.14,0.28-0.28,0.42-0.43
	s0.27-0.29,0.41-0.44c0.13-0.15,0.27-0.3,0.4-0.45c0.13-0.15,0.26-0.3,0.39-0.46c0.13-0.15,0.25-0.31,0.38-0.47
	c0.12-0.16,0.25-0.32,0.37-0.48c0.12-0.16,0.24-0.32,0.35-0.49c0.12-0.16,0.23-0.33,0.34-0.49c0.11-0.17,0.22-0.33,0.33-0.5
	c0.11-0.17,0.21-0.34,0.32-0.51s0.21-0.34,0.31-0.52c0.1-0.17,0.2-0.35,0.29-0.53c0.1-0.18,0.19-0.36,0.28-0.54
	c0.09-0.18,0.18-0.36,0.27-0.54s0.17-0.37,0.26-0.55c0.08-0.18,0.16-0.37,0.24-0.56c0.08-0.19,0.16-0.38,0.23-0.56
	c0.07-0.19,0.15-0.38,0.22-0.57c0.07-0.19,0.14-0.38,0.2-0.58c0.07-0.19,0.13-0.39,0.19-0.58c0.06-0.2,0.12-0.39,0.18-0.59
	c0.06-0.2,0.11-0.4,0.16-0.6c0.05-0.2,0.1-0.4,0.15-0.6s0.09-0.4,0.13-0.61s0.08-0.41,0.12-0.61s0.07-0.41,0.1-0.62
	s0.06-0.41,0.09-0.62c0.03-0.21,0.05-0.42,0.07-0.63c0.02-0.21,0.04-0.42,0.06-0.63c0.02-0.21,0.03-0.42,0.04-0.64
	s0.02-0.43,0.02-0.64S345,301.22,345,301s0-0.43-0.01-0.65s-0.01-0.43-0.02-0.64s-0.02-0.43-0.04-0.64
	c-0.02-0.21-0.03-0.42-0.06-0.63c-0.02-0.21-0.05-0.42-0.07-0.63c-0.03-0.21-0.06-0.42-0.09-0.62s-0.07-0.41-0.1-0.62
	s-0.08-0.41-0.12-0.61s-0.09-0.41-0.13-0.61s-0.1-0.4-0.15-0.6c-0.05-0.2-0.11-0.4-0.16-0.6c-0.06-0.2-0.11-0.39-0.18-0.59
	c-0.06-0.2-0.12-0.39-0.19-0.58c-0.07-0.19-0.13-0.39-0.2-0.58c-0.07-0.19-0.14-0.38-0.22-0.57s-0.15-0.38-0.23-0.56
	c-0.08-0.19-0.16-0.37-0.24-0.56c-0.08-0.18-0.17-0.37-0.26-0.55s-0.18-0.36-0.27-0.54c-0.09-0.18-0.19-0.36-0.28-0.54
	s-0.19-0.35-0.29-0.53c-0.1-0.17-0.2-0.35-0.31-0.52s-0.21-0.34-0.32-0.51c-0.11-0.17-0.22-0.34-0.33-0.5
	c-0.11-0.17-0.23-0.33-0.34-0.49s-0.23-0.33-0.35-0.49c-0.12-0.16-0.24-0.32-0.37-0.48c-0.12-0.16-0.25-0.31-0.38-0.47
	c-0.13-0.15-0.26-0.31-0.39-0.46c-0.13-0.15-0.26-0.3-0.4-0.45c-0.13-0.15-0.27-0.29-0.41-0.44s-0.28-0.29-0.42-0.43
	s-0.28-0.28-0.43-0.42c-0.14-0.14-0.29-0.27-0.44-0.41c-0.15-0.13-0.3-0.27-0.45-0.4c-0.15-0.13-0.3-0.26-0.46-0.39
	c-0.15-0.13-0.31-0.25-0.47-0.38c-0.16-0.12-0.32-0.25-0.48-0.37c-0.16-0.12-0.32-0.24-0.49-0.35c-0.16-0.12-0.33-0.23-0.49-0.34
	c-0.17-0.11-0.33-0.22-0.5-0.33s-0.34-0.21-0.51-0.32c-0.17-0.1-0.34-0.21-0.52-0.31s-0.35-0.2-0.53-0.29
	c-0.18-0.1-0.36-0.19-0.54-0.28c-0.18-0.09-0.36-0.18-0.54-0.27s-0.37-0.17-0.55-0.26c-0.18-0.08-0.37-0.16-0.56-0.24
	c-0.19-0.08-0.38-0.16-0.56-0.23c-0.19-0.07-0.38-0.15-0.57-0.22c-0.19-0.07-0.38-0.14-0.58-0.2c-0.19-0.07-0.39-0.13-0.58-0.19
	c-0.2-0.06-0.39-0.12-0.59-0.18c-0.2-0.06-0.4-0.11-0.6-0.16c-0.2-0.05-0.4-0.1-0.6-0.15s-0.4-0.09-0.61-0.13
	c-0.2-0.04-0.41-0.08-0.61-0.12s-0.41-0.07-0.62-0.1s-0.41-0.06-0.62-0.09c-0.21-0.03-0.42-0.05-0.63-0.07
	c-0.21-0.02-0.42-0.04-0.63-0.06c-0.21-0.02-0.42-0.03-0.64-0.04s-0.43-0.02-0.64-0.02S320.22,276,320,276s-0.43,0-0.65,0.01
	s-0.43,0.01-0.64,0.02s-0.43,0.02-0.64,0.04c-0.21,0.02-0.42,0.03-0.63,0.06c-0.21,0.02-0.42,0.05-0.63,0.07
	c-0.21,0.03-0.42,0.06-0.62,0.09s-0.41,0.07-0.62,0.1s-0.41,0.08-0.61,0.12c-0.2,0.04-0.41,0.09-0.61,0.13s-0.4,0.1-0.6,0.15
	c-0.2,0.05-0.4,0.11-0.6,0.16c-0.2,0.06-0.39,0.11-0.59,0.18c-0.2,0.06-0.39,0.12-0.58,0.19c-0.19,0.07-0.39,0.13-0.58,0.2
	c-0.19,0.07-0.38,0.14-0.57,0.22c-0.19,0.07-0.38,0.15-0.56,0.23c-0.19,0.08-0.37,0.16-0.56,0.24c-0.18,0.08-0.37,0.17-0.55,0.26
	s-0.36,0.18-0.54,0.27c-0.18,0.09-0.36,0.19-0.54,0.28c-0.18,0.1-0.35,0.19-0.53,0.29s-0.35,0.2-0.52,0.31
	c-0.17,0.1-0.34,0.21-0.51,0.32s-0.34,0.22-0.5,0.33c-0.17,0.11-0.33,0.23-0.49,0.34c-0.16,0.12-0.33,0.23-0.49,0.35
	c-0.16,0.12-0.32,0.24-0.48,0.37c-0.16,0.12-0.31,0.25-0.47,0.38c-0.15,0.13-0.31,0.26-0.46,0.39c-0.15,0.13-0.3,0.26-0.45,0.4
	c-0.15,0.13-0.29,0.27-0.44,0.41c-0.14,0.14-0.29,0.28-0.43,0.42s-0.28,0.28-0.42,0.43s-0.27,0.29-0.41,0.44
	c-0.13,0.15-0.27,0.3-0.4,0.45c-0.13,0.15-0.26,0.3-0.39,0.46c-0.13,0.15-0.25,0.31-0.38,0.47c-0.12,0.16-0.25,0.32-0.37,0.48
	c-0.12,0.16-0.24,0.32-0.35,0.49s-0.23,0.33-0.34,0.49c-0.11,0.17-0.22,0.33-0.33,0.5c-0.11,0.17-0.21,0.34-0.32,0.51
	s-0.21,0.35-0.31,0.52c-0.1,0.17-0.2,0.35-0.29,0.53s-0.19,0.36-0.28,0.54c-0.09,0.18-0.18,0.36-0.27,0.54s-0.17,0.37-0.26,0.55
	c-0.08,0.18-0.16,0.37-0.24,0.56c-0.08,0.19-0.16,0.38-0.23,0.56s-0.15,0.38-0.22,0.57c-0.07,0.19-0.14,0.38-0.2,0.58
	c-0.07,0.19-0.13,0.39-0.19,0.58c-0.06,0.2-0.12,0.39-0.18,0.59c-0.06,0.2-0.11,0.4-0.16,0.6c-0.05,0.2-0.1,0.4-0.15,0.6
	s-0.09,0.4-0.13,0.61s-0.08,0.41-0.12,0.61s-0.07,0.41-0.1,0.62s-0.06,0.41-0.09,0.62c-0.03,0.21-0.05,0.42-0.07,0.63
	c-0.02,0.21-0.04,0.42-0.06,0.63c-0.02,0.21-0.03,0.42-0.04,0.64s-0.02,0.43-0.02,0.64S295,300.78,295,301c0,0.08,0,0.16,0,0.24
	s0,0.16,0,0.24c0,0.08,0,0.16,0.01,0.24c0,0.08,0,0.16,0.01,0.24s0.01,0.16,0.01,0.24c0,0.08,0.01,0.16,0.01,0.24
	s0.01,0.16,0.01,0.24c0.01,0.08,0.01,0.16,0.02,0.24s0.01,0.16,0.02,0.24s0.01,0.16,0.02,0.24s0.02,0.16,0.02,0.24
	s0.02,0.16,0.03,0.24s0.02,0.16,0.03,0.24c0.01,0.08,0.02,0.16,0.03,0.23c0.01,0.08,0.02,0.16,0.03,0.23s0.02,0.16,0.03,0.23
	c0.01,0.08,0.02,0.16,0.04,0.23s0.03,0.15,0.04,0.23s0.03,0.15,0.04,0.23c0.01,0.08,0.03,0.15,0.04,0.23
	c0.01,0.08,0.03,0.15,0.05,0.23s0.03,0.15,0.05,0.23c0.02,0.08,0.03,0.15,0.05,0.23c0.02,0.08,0.03,0.15,0.05,0.23
	c0.02,0.08,0.04,0.15,0.05,0.23c0.02,0.08,0.04,0.15,0.06,0.23c0.02,0.08,0.04,0.15,0.06,0.22s0.04,0.15,0.06,0.22
	c0.02,0.07,0.04,0.15,0.06,0.22c0.02,0.07,0.04,0.15,0.06,0.22c0.02,0.07,0.04,0.15,0.07,0.22c0.02,0.07,0.04,0.15,0.07,0.22
	c0.06,0.19,0.12,0.37,0.18,0.56c0.06,0.18,0.12,0.36,0.19,0.54c0.06,0.18,0.13,0.35,0.2,0.53c0.07,0.17,0.14,0.34,0.2,0.51
	c0.07,0.17,0.14,0.33,0.21,0.5c0.07,0.16,0.14,0.32,0.22,0.48c0.07,0.16,0.15,0.31,0.22,0.47s0.15,0.3,0.23,0.45
	c0.08,0.15,0.15,0.29,0.23,0.44c0.08,0.14,0.15,0.28,0.23,0.42c0.08,0.14,0.16,0.27,0.23,0.41c0.08,0.13,0.16,0.26,0.24,0.39
	c0.08,0.13,0.16,0.25,0.24,0.38c0.08,0.12,0.16,0.24,0.23,0.36s0.16,0.23,0.23,0.35c0.08,0.11,0.15,0.22,0.23,0.33
	s0.15,0.21,0.23,0.31c0.08,0.1,0.15,0.2,0.22,0.3c0.07,0.1,0.15,0.19,0.22,0.28s0.14,0.18,0.21,0.27s0.14,0.17,0.21,0.25
	c0.07,0.08,0.13,0.16,0.2,0.24c0.06,0.08,0.13,0.15,0.19,0.22c0.06,0.07,0.12,0.14,0.18,0.2c0.06,0.07,0.12,0.13,0.17,0.19
	s0.11,0.12,0.16,0.17c0.05,0.05,0.1,0.11,0.15,0.16s0.09,0.1,0.14,0.14s0.08,0.09,0.12,0.12c0.04,0.04,0.08,0.08,0.11,0.11
	c0.03,0.03,0.07,0.06,0.09,0.09c0.03,0.03,0.06,0.05,0.08,0.08c0.03,0.03,0.06,0.05,0.09,0.08s0.06,0.05,0.08,0.08
	c0.03,0.03,0.06,0.05,0.08,0.08c0.03,0.03,0.06,0.05,0.08,0.08c0.03,0.03,0.05,0.05,0.08,0.07s0.05,0.05,0.08,0.07
	c0.03,0.02,0.05,0.05,0.08,0.07c0.03,0.02,0.05,0.05,0.08,0.07c0.03,0.02,0.05,0.05,0.08,0.07c0.03,0.02,0.05,0.04,0.08,0.07
	c0.03,0.02,0.05,0.04,0.08,0.06c0.02,0.02,0.05,0.04,0.07,0.06c0.02,0.02,0.05,0.04,0.07,0.06s0.05,0.04,0.07,0.06
	s0.05,0.04,0.07,0.06c0.02,0.02,0.05,0.04,0.07,0.06c0.02,0.02,0.05,0.04,0.07,0.06c0.02,0.02,0.04,0.04,0.07,0.05
	s0.04,0.04,0.07,0.05c0.02,0.02,0.04,0.03,0.06,0.05c0.02,0.02,0.04,0.03,0.06,0.05c0.02,0.02,0.04,0.03,0.06,0.05
	c0.02,0.02,0.04,0.03,0.06,0.05c0.02,0.02,0.04,0.03,0.06,0.05c0.02,0.01,0.04,0.03,0.06,0.04c0.02,0.01,0.04,0.03,0.06,0.04
	c0.02,0.01,0.04,0.03,0.05,0.04c0.02,0.01,0.04,0.03,0.05,0.04c0.02,0.01,0.03,0.03,0.05,0.04c0.02,0.01,0.03,0.03,0.05,0.04
	c0.01,0.01,0.02,0.01,0.05,0.04c0,0,0.05,0.03,0.05,0.04c0.04,0.03,0.1,0.08,0.18,0.13c0.1,0.08,0.18,0.13,0.2,0.15
	c0.11,0.08,0.19,0.14,0.22,0.16c0.08,0.06,0.16,0.11,0.24,0.17s0.17,0.12,0.27,0.19c0.09,0.06,0.19,0.13,0.29,0.2s0.2,0.13,0.31,0.2
	c0.11,0.07,0.22,0.14,0.33,0.21c0.11,0.07,0.27,0.16,0.43,0.26c0.16,0.1,0.34,0.2,0.5,0.3c0.16,0.09,0.31,0.18,0.42,0.24
	s0.17,0.1,0.17,0.1s0.07,0.04,0.19,0.1s0.29,0.15,0.48,0.25c0.19,0.1,0.4,0.2,0.6,0.3s0.4,0.2,0.57,0.27
	c0.17,0.08,0.33,0.15,0.51,0.22c0.17,0.07,0.35,0.15,0.52,0.22c0.18,0.07,0.36,0.14,0.54,0.21c0.18,0.07,0.37,0.14,0.56,0.2
	S312.5,371.5,312.5,371.5z"/>
</svg>
