<?xml version="1.0" encoding="utf-8"?>
<!-- Generator: Adobe Illustrator 23.0.1, SVG Export Plug-In . SVG Version: 6.00 Build 0)  -->
<svg version="1.1" id="Слой_1" xmlns="http://www.w3.org/2000/svg" xmlns:xlink="http://www.w3.org/1999/xlink" x="0px" y="0px"
	 viewBox="0 0 640 480" style="enable-background:new 0 0 640 480;" xml:space="preserve">
<style type="text/css">
	.st0{fill:none;stroke:#000000;stroke-miterlimit:10;}
	.st1{fill:#D90000;stroke:#000000;stroke-width:4;stroke-miterlimit:10;}
	.st2{fill:#D90E15;stroke:#000000;stroke-width:4;stroke-miterlimit:10;}
	.st3{fill:#963C85;stroke:#000000;stroke-width:4;stroke-miterlimit:10;}
</style>
<line class="st0" x1="352.5" y1="293.5" x2="343.5" y2="293.5"/>
<polygon class="st1" points="406.5,185.5 406.5,80.5 234.5,80.5 234.5,185.5 252.5,185.5 252.5,99.5 387.5,99.5 387.5,185.5 "/>
<rect x="197" y="186" class="st2" width="244" height="224"/>
<line class="st0" x1="335.5" y1="320.5" x2="335.5" y2="320.5"/>
<line class="st0" x1="197.5" y1="234.5" x2="276.5" y2="234.5"/>
<line class="st0" x1="197.5" y1="360.5" x2="223.5" y2="360.5"/>
<line class="st0" x1="440.5" y1="257.5" x2="387.5" y2="257.5"/>
<line class="st0" x1="404.5" y1="409.5" x2="404.5" y2="365.5"/>
<line class="st0" x1="348.5" y1="186.5" x2="348.5" y2="225.5"/>
<line class="st0" x1="403.5" y1="362.5" x2="386.5" y2="347.5"/>
<line class="st0" x1="225.5" y1="361.5" x2="234.5" y2="370.5"/>
<line class="st0" x1="279.5" y1="235.5" x2="288.5" y2="244.5"/>
<line class="st0" x1="347.5" y1="227.5" x2="332.5" y2="242.5"/>
<circle class="st0" cx="348.5" cy="226.5" r="1.5"/>
<circle class="st0" cx="404.5" cy="363.5" r="1.5"/>
<circle class="st0" cx="278.5" cy="234.5" r="1.5"/>
<circle class="st0" cx="224.5" cy="360.5" r="1.5"/>
<line class="st0" x1="233.5" y1="371.5" x2="197.5" y2="371.5"/>
<circle class="st0" cx="235.5" cy="371.5" r="1.5"/>
<line class="st0" x1="222.5" y1="371.5" x2="232.5" y2="381.5"/>
<line class="st0" x1="234.5" y1="382.5" x2="244.5" y2="382.5"/>
<line class="st0" x1="319.5" y1="275.5" x2="319.5" y2="186.5"/>
<line class="st0" x1="330.5" y1="243.5" x2="319.5" y2="243.5"/>
<line class="st0" x1="331.5" y1="244.5" x2="331.5" y2="268.5"/>
<line class="st0" x1="311.5" y1="186.5" x2="311.5" y2="219.5"/>
<line class="st0" x1="319.5" y1="225.5" x2="312.5" y2="221.5"/>
<line class="st0" x1="332.5" y1="271.5" x2="353.5" y2="291.5"/>
<line class="st0" x1="355.5" y1="293.5" x2="440.5" y2="293.5"/>
<line class="st0" x1="386.5" y1="255.5" x2="397.5" y2="245.5"/>
<line class="st0" x1="440.5" y1="244.5" x2="400.5" y2="244.5"/>
<circle class="st0" cx="331.5" cy="243.5" r="1.5"/>
<circle class="st0" cx="311.5" cy="220.5" r="1.5"/>
<line class="st0" x1="261.5" y1="381.5" x2="270.5" y2="371.5"/>
<line class="st0" x1="237" y1="371.5" x2="270.5" y2="371.5"/>
<line class="st0" x1="270.5" y1="371.5" x2="284.5" y2="371.5"/>
<line class="st0" x1="286.5" y1="370.5" x2="292.5" y2="364.5"/>
<line class="st0" x1="298.5" y1="363.5" x2="295.5" y2="363.5"/>
<circle class="st0" cx="285.5" cy="371.5" r="1.5"/>
<circle class="st0" cx="293.5" cy="363.5" r="1.5"/>
<line class="st0" x1="246.5" y1="383.5" x2="246.5" y2="409.5"/>
<circle class="st0" cx="246.5" cy="382.5" r="1.5"/>
<line class="st0" x1="261.5" y1="383.5" x2="271.5" y2="394.5"/>
<line class="st0" x1="272.5" y1="396.5" x2="272.5" y2="409.5"/>
<line class="st0" x1="221.5" y1="394.5" x2="197.5" y2="394.5"/>
<circle class="st0" cx="233.5" cy="382.5" r="1.5"/>
<circle class="st0" cx="260.5" cy="382.5" r="1.5"/>
<circle class="st0" cx="272.5" cy="395.5" r="1.5"/>
<line class="st0" x1="248.5" y1="382.5" x2="259.5" y2="382.5"/>
<circle class="st0" cx="332" cy="270" r="1.5"/>
<circle class="st0" cx="354" cy="293" r="1.5"/>
<circle class="st0" cx="386" cy="257" r="1.5"/>
<circle class="st0" cx="399" cy="245" r="1.5"/>
<polyline class="st0" points="232.5,383.5 211.5,404.5 211.5,408.5 "/>
<line class="st0" x1="386.5" y1="293.5" x2="395.5" y2="285.5"/>
<line class="st0" x1="398.5" y1="284.5" x2="439.5" y2="284.5"/>
<circle class="st0" cx="397" cy="285" r="1.5"/>
<polyline class="st0" points="439.5,275.5 429.5,275.5 420.5,284.5 "/>
<line class="st0" x1="409.5" y1="293.5" x2="417.5" y2="301.5"/>
<line class="st0" x1="380.5" y1="293.5" x2="369.5" y2="304.5"/>
<line class="st0" x1="398.5" y1="243.5" x2="383.5" y2="228.5"/>
<line class="st0" x1="381.5" y1="226.5" x2="350.5" y2="226.5"/>
<circle class="st0" cx="383" cy="227" r="1.5"/>
<path class="st3" d="M312.5,371.5h16v-47c0,0,0.2-0.1,0.3-0.1s0.2-0.1,0.3-0.1s0.2-0.1,0.3-0.1c0.1,0,0.2-0.1,0.3-0.1
	c0.1,0,0.2-0.1,0.3-0.1s0.2-0.1,0.3-0.1s0.2-0.1,0.3-0.1s0.1,0,0.1,0l0.3-0.1l0.3-0.1l0.3-0.1l0.3-0.1c0,0,0,0,0.1-0.1
	s0.2-0.1,0.3-0.1c0.1-0.1,0.2-0.1,0.3-0.2s0.2-0.1,0.3-0.2c0.1,0,0.2-0.1,0.2-0.1c0.1,0,0.2-0.1,0.2-0.1l0.2-0.1l0.2-0.1
	c0,0,0.2-0.1,0.2-0.2c0.1,0,0.2-0.1,0.2-0.2c0.1,0,0.2-0.1,0.2-0.2c0.1,0,0.1-0.1,0.2-0.2c0.1,0,0.1-0.1,0.2-0.2s0.1-0.1,0.2-0.2
	s0.1-0.1,0.2-0.2s0.1-0.1,0.2-0.2c0,0,0,0,0.1-0.1c0,0,0,0,0.1-0.1s0,0,0.1-0.1c0,0,0,0,0.1-0.1c0,0,0,0,0.1-0.1c0,0,0,0,0.1-0.1
	c0,0,0,0,0.1-0.1c0,0,0,0,0.1-0.1s0,0,0.1-0.1c0,0,0,0,0.1-0.1c0,0,0,0,0.1-0.1c0,0,0,0,0.1-0.1c0,0,0,0,0.1-0.1c0,0,0,0,0.1-0.1
	s0,0,0.1-0.1c0,0,0,0,0.1-0.1s0,0,0.1-0.1c0,0,0,0,0.1-0.1c0,0,0,0,0.1-0.1s0,0,0.1-0.1c0,0,0,0,0.1-0.1c0,0,0,0,0.1-0.1
	c0,0,0,0,0.1-0.1c0,0,0,0,0.1-0.1c0,0,0,0,0.1-0.1c0,0,0,0,0.1-0.1c0,0,0,0,0.1-0.1c0,0,0,0,0.1-0.1c0,0,0,0,0.1-0.1s0,0,0.1-0.1
	c0,0,0,0,0.1-0.1c0,0,0,0,0.1-0.1s0.3-0.3,0.4-0.4s0.3-0.3,0.4-0.4s0.3-0.3,0.4-0.5c0.1-0.1,0.3-0.3,0.4-0.5
	c0.1-0.1,0.3-0.3,0.4-0.5s0.3-0.3,0.4-0.5s0.2-0.3,0.4-0.5c0.1-0.2,0.2-0.3,0.3-0.5c0.1-0.2,0.2-0.3,0.3-0.5s0.2-0.3,0.3-0.5
	s0.2-0.3,0.3-0.5c0.1-0.2,0.2-0.4,0.3-0.5c0.1-0.2,0.2-0.4,0.3-0.5c0.1-0.2,0.2-0.4,0.3-0.5s0.2-0.4,0.3-0.5
	c0.1-0.2,0.2-0.4,0.2-0.6s0.2-0.4,0.2-0.6c0.1-0.2,0.1-0.4,0.2-0.6s0.1-0.4,0.2-0.6s0.1-0.4,0.2-0.6s0.1-0.4,0.2-0.6
	s0.1-0.4,0.2-0.6c0-0.2,0.1-0.4,0.1-0.6s0.1-0.4,0.1-0.6s0.1-0.4,0.1-0.6s0.1-0.4,0.1-0.6s0.1-0.4,0.1-0.6s0-0.4,0.1-0.6
	c0-0.2,0-0.4,0.1-0.6s0-0.4,0-0.6s0-0.4,0-0.6s0-0.4,0-0.6s0-0.4,0-0.6s0-0.4,0-0.6s0-0.4,0-0.6s0-0.4-0.1-0.6c0-0.2,0-0.4-0.1-0.6
	c0-0.2-0.1-0.4-0.1-0.6s-0.1-0.4-0.1-0.6s-0.1-0.4-0.1-0.6s-0.1-0.4-0.1-0.6s-0.1-0.4-0.1-0.6s-0.1-0.4-0.2-0.6s-0.1-0.4-0.2-0.6
	s-0.1-0.4-0.2-0.6s-0.1-0.4-0.2-0.6s-0.1-0.4-0.2-0.6s-0.1-0.4-0.2-0.6s-0.2-0.4-0.2-0.6c-0.1-0.2-0.2-0.4-0.3-0.5s-0.2-0.4-0.3-0.5
	c-0.1-0.2-0.2-0.4-0.3-0.5s-0.2-0.4-0.3-0.5c-0.1-0.2-0.2-0.4-0.3-0.5s-0.2-0.3-0.3-0.5c-0.1-0.2-0.2-0.3-0.3-0.5
	c-0.1-0.2-0.2-0.3-0.3-0.5s-0.2-0.3-0.4-0.5s-0.2-0.3-0.4-0.5c-0.1-0.2-0.3-0.3-0.4-0.5c-0.1-0.1-0.3-0.3-0.4-0.5s-0.3-0.3-0.4-0.5
	c-0.1-0.1-0.3-0.3-0.4-0.4s-0.3-0.3-0.4-0.4s-0.3-0.3-0.4-0.4s-0.3-0.3-0.4-0.4s-0.3-0.3-0.5-0.4c-0.1-0.1-0.3-0.3-0.5-0.4
	c-0.1-0.1-0.3-0.3-0.5-0.4s-0.3-0.3-0.5-0.4s-0.3-0.2-0.5-0.4c-0.2-0.1-0.3-0.2-0.5-0.3c-0.2-0.1-0.3-0.2-0.5-0.3s-0.3-0.2-0.5-0.3
	c-0.2-0.1-0.3-0.2-0.5-0.3s-0.4-0.2-0.5-0.3c-0.2-0.1-0.4-0.2-0.5-0.3c-0.2-0.1-0.4-0.2-0.5-0.3s-0.4-0.2-0.5-0.3
	c-0.2-0.1-0.4-0.2-0.6-0.2s-0.4-0.2-0.6-0.2c-0.2-0.1-0.4-0.1-0.6-0.2s-0.4-0.1-0.6-0.2s-0.4-0.1-0.6-0.2s-0.4-0.1-0.6-0.2
	s-0.4-0.1-0.6-0.2c-0.2,0-0.4-0.1-0.6-0.1s-0.4-0.1-0.6-0.1s-0.4-0.1-0.6-0.1s-0.4-0.1-0.6-0.1s-0.4-0.1-0.6-0.1s-0.4,0-0.6-0.1
	c-0.2,0-0.4,0-0.6-0.1s-0.4,0-0.6,0s-0.4,0-0.6,0s-0.4,0-0.6,0s-0.4,0-0.6,0s-0.4,0-0.6,0s-0.4,0-0.6,0s-0.4,0-0.6,0.1
	c-0.2,0-0.4,0-0.6,0.1c-0.2,0-0.4,0.1-0.6,0.1s-0.4,0.1-0.6,0.1s-0.4,0.1-0.6,0.1s-0.4,0.1-0.6,0.1s-0.4,0.1-0.6,0.1
	s-0.4,0.1-0.6,0.2s-0.4,0.1-0.6,0.2s-0.4,0.1-0.6,0.2s-0.4,0.1-0.6,0.2s-0.4,0.1-0.6,0.2s-0.4,0.1-0.6,0.2s-0.4,0.2-0.6,0.2
	c-0.2,0.1-0.4,0.2-0.5,0.3s-0.4,0.2-0.5,0.3c-0.2,0.1-0.4,0.2-0.5,0.3c-0.2,0.1-0.4,0.2-0.5,0.3s-0.4,0.2-0.5,0.3
	c-0.2,0.1-0.3,0.2-0.5,0.3s-0.3,0.2-0.5,0.3c-0.2,0.1-0.3,0.2-0.5,0.3c-0.2,0.1-0.3,0.2-0.5,0.4s-0.3,0.2-0.5,0.4
	c-0.2,0.1-0.3,0.3-0.5,0.4c-0.1,0.1-0.3,0.3-0.5,0.4s-0.3,0.3-0.5,0.4c-0.1,0.1-0.3,0.3-0.4,0.4s-0.3,0.3-0.4,0.4s-0.3,0.3-0.4,0.4
	s-0.3,0.3-0.4,0.4s-0.3,0.3-0.4,0.5c-0.1,0.1-0.3,0.3-0.4,0.5c-0.1,0.1-0.3,0.3-0.4,0.5s-0.3,0.3-0.4,0.5s-0.2,0.3-0.4,0.5
	s-0.2,0.3-0.3,0.5c-0.1,0.2-0.2,0.3-0.3,0.5s-0.2,0.3-0.3,0.5s-0.2,0.4-0.3,0.5c-0.1,0.2-0.2,0.4-0.3,0.5s-0.2,0.4-0.3,0.5
	c-0.1,0.2-0.2,0.4-0.3,0.5s-0.2,0.4-0.3,0.5c-0.1,0.2-0.2,0.4-0.2,0.6s-0.2,0.4-0.2,0.6s-0.1,0.4-0.2,0.6s-0.1,0.4-0.2,0.6
	s-0.1,0.4-0.2,0.6s-0.1,0.4-0.2,0.6s-0.1,0.4-0.2,0.6c0,0.2-0.1,0.4-0.1,0.6s-0.1,0.4-0.1,0.6s-0.1,0.4-0.1,0.6s-0.1,0.4-0.1,0.6
	s-0.1,0.4-0.1,0.6s0,0.4-0.1,0.6c0,0.2,0,0.4-0.1,0.6s0,0.4,0,0.6s0,0.4,0,0.6s0,0.4,0,0.6c0,0.1,0,0.2,0,0.2v0.2v0.2
	c0,0.1,0,0.2,0,0.2v0.2v0.2v0.2c0,0.1,0,0.2,0,0.2v0.2v0.2v0.2v0.2v0.2v0.2c0,0.1,0,0.2,0,0.2v0.2c0,0.1,0,0.2,0,0.2s0,0.1,0,0.2
	s0,0.1,0,0.2s0,0.1,0,0.2s0,0.1,0,0.2s0,0.1,0,0.2s0,0.1,0,0.2s0,0.1,0,0.2s0,0.1,0,0.2s0,0.1,0.1,0.2c0,0.1,0,0.1,0.1,0.2
	s0,0.1,0.1,0.2s0,0.1,0.1,0.2s0,0.1,0.1,0.2s0,0.1,0.1,0.2c0,0.1,0,0.1,0.1,0.2c0.1,0.2,0.1,0.4,0.2,0.6s0.1,0.4,0.2,0.5
	c0.1,0.2,0.1,0.4,0.2,0.5c0.1,0.2,0.1,0.3,0.2,0.5s0.1,0.3,0.2,0.5s0.1,0.3,0.2,0.5s0.1,0.3,0.2,0.5s0.1,0.3,0.2,0.5
	c0.1,0.1,0.1,0.3,0.2,0.4s0.1,0.3,0.2,0.4s0.2,0.3,0.2,0.4c0.1,0.1,0.2,0.3,0.2,0.4s0.2,0.3,0.2,0.4c0.1,0.1,0.2,0.2,0.2,0.4
	s0.2,0.2,0.2,0.4c0.1,0.1,0.1,0.2,0.2,0.3s0.1,0.2,0.2,0.3c0.1,0.1,0.1,0.2,0.2,0.3c0.1,0.1,0.1,0.2,0.2,0.3s0.1,0.2,0.2,0.3
	s0.1,0.2,0.2,0.3c0.1,0.1,0.1,0.2,0.2,0.2c0.1,0.1,0.1,0.1,0.2,0.2s0.1,0.1,0.2,0.2s0.1,0.1,0.2,0.2s0.1,0.1,0.2,0.2
	c0,0,0.1,0.1,0.1,0.2s0.1,0.1,0.1,0.1l0.1,0.1l0.1,0.1l0.1,0.1c0,0,0.1,0,0.1,0.1c0,0,0.1,0,0.1,0.1s0.1,0,0.1,0.1
	c0,0,0.1,0,0.1,0.1c0,0,0.1,0,0.1,0.1c0,0,0,0,0.1,0.1s0,0,0.1,0.1c0,0,0,0,0.1,0.1c0,0,0,0,0.1,0.1c0,0,0,0,0.1,0.1
	c0,0,0,0,0.1,0.1c0,0,0,0,0.1,0.1c0,0,0,0,0.1,0.1c0,0,0,0,0.1,0.1s0,0,0.1,0.1s0,0,0.1,0.1c0,0,0,0,0.1,0.1c0,0,0,0,0.1,0.1
	c0,0,0,0,0.1,0s0,0,0.1,0c0,0,0,0,0.1,0s0,0,0.1,0s0,0,0.1,0s0,0,0.1,0s0,0,0.1,0c0,0,0,0,0.1,0s0,0,0.1,0s0,0,0,0l0,0l0,0l0,0l0,0
	l0,0c0,0,0.1,0.1,0.2,0.1c0.1,0.1,0.2,0.1,0.2,0.1c0.1,0.1,0.2,0.1,0.2,0.2c0.1,0.1,0.2,0.1,0.2,0.2s0.2,0.1,0.3,0.2
	c0.1,0.1,0.2,0.1,0.3,0.2s0.2,0.1,0.3,0.2s0.2,0.1,0.3,0.2c0.1,0.1,0.3,0.2,0.4,0.3s0.3,0.2,0.5,0.3c0.2,0.1,0.3,0.2,0.4,0.2
	s0.2,0.1,0.2,0.1s0.1,0,0.2,0.1s0.3,0.1,0.5,0.3s0.4,0.2,0.6,0.3s0.4,0.2,0.6,0.3c0.2,0.1,0.3,0.1,0.5,0.2s0.4,0.1,0.5,0.2
	c0.2,0.1,0.4,0.1,0.5,0.2c0.2,0.1,0.4,0.1,0.6,0.2S312.5,371.5,312.5,371.5z"/>
</svg>
